<mxfile host="app.diagrams.net" agent="Mozilla/5.0 (X11; Linux x86_64; rv:136.0) Gecko/20100101 Firefox/136.0" version="26.2.1">
  <diagram name="Page-1" id="Bg37RFrB-3h6TPeFaZ-y">
    <mxGraphModel dx="1486" dy="909" grid="1" gridSize="10" guides="1" tooltips="1" connect="1" arrows="1" fold="1" page="1" pageScale="1" pageWidth="850" pageHeight="1100" math="0" shadow="0">
      <root>
        <mxCell id="0" />
        <mxCell id="1" parent="0" />
        <mxCell id="p-CDTo2Od_cm08eBTlTS-29" value="" style="group;dashed=1;dashPattern=8 8;strokeColor=default;" vertex="1" connectable="0" parent="1">
          <mxGeometry x="80" y="160" width="710" height="500" as="geometry" />
        </mxCell>
        <mxCell id="p-CDTo2Od_cm08eBTlTS-26" value="" style="group" vertex="1" connectable="0" parent="p-CDTo2Od_cm08eBTlTS-29">
          <mxGeometry width="710" height="440" as="geometry" />
        </mxCell>
        <mxCell id="p-CDTo2Od_cm08eBTlTS-9" style="rounded=0;orthogonalLoop=1;jettySize=auto;html=1;entryX=0;entryY=0.5;entryDx=0;entryDy=0;" edge="1" parent="p-CDTo2Od_cm08eBTlTS-26" source="p-CDTo2Od_cm08eBTlTS-2" target="p-CDTo2Od_cm08eBTlTS-4">
          <mxGeometry relative="1" as="geometry" />
        </mxCell>
        <mxCell id="p-CDTo2Od_cm08eBTlTS-20" value="Text Analysis" style="edgeLabel;html=1;align=center;verticalAlign=middle;resizable=0;points=[];" vertex="1" connectable="0" parent="p-CDTo2Od_cm08eBTlTS-9">
          <mxGeometry x="-0.011" relative="1" as="geometry">
            <mxPoint as="offset" />
          </mxGeometry>
        </mxCell>
        <mxCell id="p-CDTo2Od_cm08eBTlTS-12" style="rounded=0;orthogonalLoop=1;jettySize=auto;html=1;exitX=0.981;exitY=0.615;exitDx=0;exitDy=0;exitPerimeter=0;" edge="1" parent="p-CDTo2Od_cm08eBTlTS-26" source="p-CDTo2Od_cm08eBTlTS-2" target="p-CDTo2Od_cm08eBTlTS-5">
          <mxGeometry relative="1" as="geometry" />
        </mxCell>
        <mxCell id="p-CDTo2Od_cm08eBTlTS-19" value="&lt;div&gt;Link&amp;nbsp;&lt;/div&gt;&lt;div&gt;Classification&lt;/div&gt;" style="edgeLabel;html=1;align=center;verticalAlign=middle;resizable=0;points=[];labelBackgroundColor=default;" vertex="1" connectable="0" parent="p-CDTo2Od_cm08eBTlTS-12">
          <mxGeometry x="-0.0085" y="-1" relative="1" as="geometry">
            <mxPoint as="offset" />
          </mxGeometry>
        </mxCell>
        <mxCell id="p-CDTo2Od_cm08eBTlTS-13" style="rounded=0;orthogonalLoop=1;jettySize=auto;html=1;" edge="1" parent="p-CDTo2Od_cm08eBTlTS-26" source="p-CDTo2Od_cm08eBTlTS-2" target="p-CDTo2Od_cm08eBTlTS-6">
          <mxGeometry relative="1" as="geometry" />
        </mxCell>
        <mxCell id="p-CDTo2Od_cm08eBTlTS-24" value="&lt;div&gt;News&amp;nbsp;&lt;/div&gt;&lt;div&gt;Classification&lt;/div&gt;" style="edgeLabel;html=1;align=center;verticalAlign=middle;resizable=0;points=[];" vertex="1" connectable="0" parent="p-CDTo2Od_cm08eBTlTS-13">
          <mxGeometry x="-0.2517" relative="1" as="geometry">
            <mxPoint as="offset" />
          </mxGeometry>
        </mxCell>
        <mxCell id="p-CDTo2Od_cm08eBTlTS-2" value="Telegram Security Bot" style="ellipse;whiteSpace=wrap;html=1;aspect=fixed;fillColor=#ffe6cc;strokeColor=#d79b00;" vertex="1" parent="p-CDTo2Od_cm08eBTlTS-26">
          <mxGeometry x="205" y="110" width="260" height="260" as="geometry" />
        </mxCell>
        <mxCell id="p-CDTo2Od_cm08eBTlTS-7" style="rounded=0;orthogonalLoop=1;jettySize=auto;html=1;exitX=1;exitY=0.5;exitDx=0;exitDy=0;" edge="1" parent="p-CDTo2Od_cm08eBTlTS-26" source="p-CDTo2Od_cm08eBTlTS-3" target="p-CDTo2Od_cm08eBTlTS-2">
          <mxGeometry relative="1" as="geometry" />
        </mxCell>
        <mxCell id="p-CDTo2Od_cm08eBTlTS-22" value="&lt;div&gt;Message /&lt;/div&gt;&lt;div&gt;Commands&lt;/div&gt;" style="edgeLabel;html=1;align=center;verticalAlign=middle;resizable=0;points=[];" vertex="1" connectable="0" parent="p-CDTo2Od_cm08eBTlTS-7">
          <mxGeometry x="-0.3727" y="2" relative="1" as="geometry">
            <mxPoint as="offset" />
          </mxGeometry>
        </mxCell>
        <mxCell id="p-CDTo2Od_cm08eBTlTS-3" value="Telegram User" style="rounded=1;whiteSpace=wrap;html=1;fillColor=#dae8fc;strokeColor=#6c8ebf;" vertex="1" parent="p-CDTo2Od_cm08eBTlTS-26">
          <mxGeometry y="50" width="140" height="70" as="geometry" />
        </mxCell>
        <mxCell id="p-CDTo2Od_cm08eBTlTS-14" style="rounded=0;orthogonalLoop=1;jettySize=auto;html=1;" edge="1" parent="p-CDTo2Od_cm08eBTlTS-26" source="p-CDTo2Od_cm08eBTlTS-4" target="p-CDTo2Od_cm08eBTlTS-2">
          <mxGeometry relative="1" as="geometry" />
        </mxCell>
        <mxCell id="p-CDTo2Od_cm08eBTlTS-21" value="&lt;div&gt;Spam&amp;nbsp;&lt;/div&gt;&lt;div&gt;classification&lt;/div&gt;" style="edgeLabel;html=1;align=center;verticalAlign=middle;resizable=0;points=[];" vertex="1" connectable="0" parent="p-CDTo2Od_cm08eBTlTS-14">
          <mxGeometry x="0.1234" y="1" relative="1" as="geometry">
            <mxPoint as="offset" />
          </mxGeometry>
        </mxCell>
        <mxCell id="p-CDTo2Od_cm08eBTlTS-4" value="Spam Detection Model" style="rounded=0;whiteSpace=wrap;html=1;fillColor=#d5e8d4;strokeColor=#82b366;" vertex="1" parent="p-CDTo2Od_cm08eBTlTS-26">
          <mxGeometry x="510" width="140" height="70" as="geometry" />
        </mxCell>
        <mxCell id="p-CDTo2Od_cm08eBTlTS-15" style="rounded=0;orthogonalLoop=1;jettySize=auto;html=1;entryX=0.968;entryY=0.339;entryDx=0;entryDy=0;entryPerimeter=0;exitX=0;exitY=0.25;exitDx=0;exitDy=0;" edge="1" parent="p-CDTo2Od_cm08eBTlTS-26" source="p-CDTo2Od_cm08eBTlTS-5" target="p-CDTo2Od_cm08eBTlTS-2">
          <mxGeometry relative="1" as="geometry">
            <mxPoint x="540" y="179.1559030002188" as="sourcePoint" />
            <mxPoint x="462.5382552793567" y="194.82077363583494" as="targetPoint" />
          </mxGeometry>
        </mxCell>
        <mxCell id="p-CDTo2Od_cm08eBTlTS-18" value="&lt;div&gt;URL for&amp;nbsp;&lt;/div&gt;&lt;div&gt;analysis&lt;/div&gt;" style="edgeLabel;html=1;align=center;verticalAlign=middle;resizable=0;points=[];" vertex="1" connectable="0" parent="p-CDTo2Od_cm08eBTlTS-15">
          <mxGeometry x="-0.0335" y="-1" relative="1" as="geometry">
            <mxPoint as="offset" />
          </mxGeometry>
        </mxCell>
        <mxCell id="p-CDTo2Od_cm08eBTlTS-5" value="Malicious Link Model" style="rounded=0;whiteSpace=wrap;html=1;fillColor=#d5e8d4;strokeColor=#82b366;" vertex="1" parent="p-CDTo2Od_cm08eBTlTS-26">
          <mxGeometry x="570" y="200" width="140" height="70" as="geometry" />
        </mxCell>
        <mxCell id="p-CDTo2Od_cm08eBTlTS-6" value="Fake News Model" style="rounded=0;whiteSpace=wrap;html=1;fillColor=#d5e8d4;strokeColor=#82b366;" vertex="1" parent="p-CDTo2Od_cm08eBTlTS-26">
          <mxGeometry x="530" y="370" width="140" height="70" as="geometry" />
        </mxCell>
        <mxCell id="p-CDTo2Od_cm08eBTlTS-8" style="rounded=0;orthogonalLoop=1;jettySize=auto;html=1;entryX=0.602;entryY=1.066;entryDx=0;entryDy=0;entryPerimeter=0;" edge="1" parent="p-CDTo2Od_cm08eBTlTS-26" source="p-CDTo2Od_cm08eBTlTS-2" target="p-CDTo2Od_cm08eBTlTS-3">
          <mxGeometry relative="1" as="geometry" />
        </mxCell>
        <mxCell id="p-CDTo2Od_cm08eBTlTS-23" value="Analysis / Result" style="edgeLabel;html=1;align=center;verticalAlign=middle;resizable=0;points=[];" vertex="1" connectable="0" parent="p-CDTo2Od_cm08eBTlTS-8">
          <mxGeometry x="0.1869" y="2" relative="1" as="geometry">
            <mxPoint as="offset" />
          </mxGeometry>
        </mxCell>
        <mxCell id="p-CDTo2Od_cm08eBTlTS-16" style="rounded=0;orthogonalLoop=1;jettySize=auto;html=1;entryX=0.81;entryY=0.878;entryDx=0;entryDy=0;entryPerimeter=0;exitX=0;exitY=0.75;exitDx=0;exitDy=0;" edge="1" parent="p-CDTo2Od_cm08eBTlTS-26" source="p-CDTo2Od_cm08eBTlTS-6" target="p-CDTo2Od_cm08eBTlTS-2">
          <mxGeometry relative="1" as="geometry" />
        </mxCell>
        <mxCell id="p-CDTo2Od_cm08eBTlTS-25" value="&lt;div&gt;News Content&amp;nbsp;&lt;/div&gt;&lt;div&gt;for Analysis &lt;/div&gt;" style="edgeLabel;html=1;align=center;verticalAlign=middle;resizable=0;points=[];" vertex="1" connectable="0" parent="p-CDTo2Od_cm08eBTlTS-16">
          <mxGeometry x="0.17" relative="1" as="geometry">
            <mxPoint as="offset" />
          </mxGeometry>
        </mxCell>
        <mxCell id="p-CDTo2Od_cm08eBTlTS-28" value="Telegram Bot Application" style="text;html=1;align=center;verticalAlign=middle;resizable=0;points=[];autosize=1;strokeColor=none;fillColor=none;" vertex="1" parent="p-CDTo2Od_cm08eBTlTS-29">
          <mxGeometry x="250" y="470" width="160" height="30" as="geometry" />
        </mxCell>
      </root>
    </mxGraphModel>
  </diagram>
</mxfile>
